<?xml version="1.0" standalone="no"?>
<!DOCTYPE svg PUBLIC "-//W3C//DTD SVG 1.1//EN" "http://www.w3.org/Graphics/SVG/1.1/DTD/svg11.dtd" >
<svg xmlns="http://www.w3.org/2000/svg" xmlns:xlink="http://www.w3.org/1999/xlink" version="1.1">
<metadata></metadata>
<defs>
<font id="ooredoobold" horiz-adv-x="1308" >
<font-face units-per-em="2048" ascent="1638" descent="-410" />
<missing-glyph horiz-adv-x="706" />
<glyph horiz-adv-x="0" />
<glyph unicode="&#xd;" horiz-adv-x="872" />
<glyph unicode=" "  horiz-adv-x="706" />
<glyph unicode="&#x09;" horiz-adv-x="706" />
<glyph unicode="&#xa0;" horiz-adv-x="706" />
<glyph unicode="!" horiz-adv-x="520" d="M113 121q0 59 44 103t103 44t103.5 -44t44.5 -103t-44.5 -103.5t-103.5 -44.5t-103 44.5t-44 103.5zM145 381v1053h238v-1053h-238z" />
<glyph unicode="&#x22;" horiz-adv-x="712" d="M102 971v463h183v-463h-183zM428 971v463h182v-463h-182z" />
<glyph unicode="#" horiz-adv-x="1388" d="M41 315l43 228h219l62 348h-244l45 225h233l58 318h241l-53 -318h242l53 318h238l-54 -318h224l-39 -225h-224l-61 -348h242l-37 -228h-242l-55 -315h-238l54 315h-240l-55 -315h-242l53 315h-223zM545 543h239l62 348h-240z" />
<glyph unicode="$" horiz-adv-x="1247" d="M51 213l121 184q96 -78 182 -128t197 -60v430q-92 31 -172 65.5t-140.5 83t-95 114t-34.5 155.5q0 92 35.5 163.5t96 124t140.5 84t170 41.5v82h184v-88q98 -18 192.5 -63t178.5 -105l-102 -188q-74 51 -141.5 78.5t-127.5 40.5v-393q82 -25 165 -57t148.5 -78 t106.5 -113.5t41 -165.5q0 -96 -37 -172t-99.5 -130.5t-146.5 -88t-178 -45.5v-185h-184v178q-137 12 -266 77t-234 159zM362 1075q0 -70 52.5 -111.5t136.5 -72.5v342q-84 -12 -136.5 -54.5t-52.5 -103.5zM735 219q98 20 156.5 67.5t58.5 108.5q0 72 -51 110.5t-137 67.5 q-8 2 -14.5 4.5t-12.5 4.5v-363z" />
<glyph unicode="%" horiz-adv-x="1583" d="M41 1122q0 70 25.5 129.5t69.5 103.5t104.5 68.5t132.5 24.5q70 0 129 -26.5t102 -70.5t67.5 -104.5t24.5 -128.5t-26.5 -127t-70.5 -104t-103.5 -72t-124.5 -27q-68 0 -127.5 27t-104.5 73t-71.5 106.5t-26.5 127.5zM121 0l1053 1434h262l-1051 -1434h-264zM223 1120 q0 -31 11.5 -57.5t32 -47t47 -32.5t55.5 -12q61 0 103 45t42 110q0 57 -42 98.5t-101 41.5q-66 0 -107 -41t-41 -105zM887 307q0 70 25.5 129.5t69.5 103.5t104.5 68.5t132.5 24.5q70 0 129 -26.5t102 -70.5t67.5 -104.5t24.5 -128.5t-26.5 -127t-70.5 -104t-103.5 -72 t-124.5 -27q-68 0 -127.5 27t-104.5 73t-71.5 106.5t-26.5 127.5zM1069 305q0 -31 11.5 -57.5t32 -47t47 -32.5t54.5 -12q61 0 103.5 45t42.5 110q0 57 -42 98.5t-101 41.5q-66 0 -107 -41t-41 -105z" />
<glyph unicode="&#x26;" horiz-adv-x="1376" d="M82 375q0 102 59.5 203.5t157.5 181.5l100 82l-34 37q-59 66 -99.5 133t-40.5 133q0 63 28 118.5t74 96.5t105.5 65.5t120.5 24.5q63 0 122.5 -24.5t105.5 -65.5t75 -96.5t29 -118.5q-2 -84 -43 -164t-109 -127l-39 -27l297 -338l187 179l137 -142l-182 -180l202 -223 l-157 -150l-197 217l-107 -104q-70 -68 -153.5 -101.5t-173.5 -33.5q-84 0 -168 31.5t-149.5 88t-106.5 134.5t-41 170zM303 402.5q-4 -48.5 15.5 -91.5t56.5 -78q37 -37 83 -56t94 -19t94 18.5t83 54.5l111 111l-308 352l-104 -88q-61 -53 -91 -104t-34 -99.5zM426 1141 q0 -20 10 -39t23.5 -35t28 -29.5t26.5 -25.5l25 -25q12 8 35.5 22.5t47 34t41 44t17.5 53.5q0 53 -37 91t-90 38t-90 -38t-37 -91z" />
<glyph unicode="'" horiz-adv-x="387" d="M102 971v463h183v-463h-183z" />
<glyph unicode="(" horiz-adv-x="718" d="M92 573q0 117 33 241t95.5 238.5t153.5 212t208 162.5l92 -182q-94 -86 -159.5 -161.5t-106.5 -152.5t-59.5 -163t-18.5 -195q0 -104 20.5 -194t63.5 -170t108.5 -151.5t155.5 -141.5l-103 -186q-102 57 -191 150t-153.5 207t-101.5 240t-37 246z" />
<glyph unicode=")" horiz-adv-x="724" d="M92 -84q90 70 155.5 141.5t108.5 151.5t63.5 170t20.5 194q0 109 -18.5 195t-59 163t-106.5 152.5t-160 161.5l92 182q117 -66 208 -163t153.5 -211.5t95.5 -238.5t33 -241q0 -121 -37 -246.5t-101.5 -239.5t-153.5 -207t-191 -150z" />
<glyph unicode="*" horiz-adv-x="600" d="M16 1094v120h177l-95 158l109 66l94 -160l92 156l111 -60l-94 -160h174v-120h-174l92 -152l-107 -68l-94 158l-92 -158l-109 66l93 154h-177z" />
<glyph unicode="+" horiz-adv-x="1153" d="M82 590v239h375v375h239v-375h375v-239h-375v-375h-239v375h-375z" />
<glyph unicode="," horiz-adv-x="561" d="M133 121q0 59 44 103t104 44q59 0 103 -44t44 -103q0 -111 -63.5 -204t-208.5 -136l-23 65q59 23 92 52.5t39 74.5q-53 8 -92 50.5t-39 97.5z" />
<glyph unicode="-" horiz-adv-x="821" d="M61 487v240h699v-240h-699z" />
<glyph unicode="." horiz-adv-x="561" d="M133 121q0 59 44 103t104 44q59 0 103 -44t44 -103t-44 -103.5t-103 -44.5t-103.5 44.5t-44.5 103.5z" />
<glyph unicode="/" horiz-adv-x="788" d="M14 -150l521 1690h239l-520 -1690h-240z" />
<glyph unicode="0" horiz-adv-x="1165" d="M113 416v594q0 88 38.5 169t103 141t149 96t174.5 36q92 0 178 -36t152.5 -96t105.5 -141t39 -169v-594q0 -92 -39 -173t-105.5 -140.5t-152.5 -94.5t-178 -35q-90 0 -174.5 35t-149 94.5t-103 140.5t-38.5 173zM348 522q0 -63 12.5 -119.5t39 -98.5t70.5 -66.5 t108 -24.5q63 0 109 24.5t73.5 66.5t41 98.5t13.5 119.5v389q0 63 -13.5 117.5t-41 95.5t-73.5 64.5t-109 23.5t-107.5 -23.5t-71 -64.5t-39 -95t-12.5 -118v-389z" />
<glyph unicode="1" horiz-adv-x="968" d="M195 1194v240h436v-1434h-238v1194h-198z" />
<glyph unicode="2" horiz-adv-x="1138" d="M92 999q4 94 42 177.5t101.5 144.5t147.5 96t180 35q98 0 184.5 -37t151 -101.5t101 -150.5t36.5 -184q0 -80 -33.5 -154.5t-87.5 -128.5l-452 -456h573v-240h-938v190l592 580q41 41 75 94.5t34 114.5q0 49 -18.5 91t-51.5 75t-75 51t-91 18q-92 0 -156.5 -62 t-74.5 -153h-240z" />
<glyph unicode="3" horiz-adv-x="1230" d="M154 424h237q2 -47 21.5 -87t51.5 -68.5t73 -46t88 -17.5q49 0 91 18.5t74.5 50t51 73.5t18.5 91t-18.5 91t-51 75t-74.5 51.5t-91 18.5h-119v203l295 317h-645v240h938v-240l-295 -317q135 -51 217 -168t82 -271q0 -98 -37 -184t-101.5 -149.5t-150.5 -100.5t-184 -37 q-96 0 -181.5 36t-149 97.5t-101 144.5t-39.5 179z" />
<glyph unicode="4" horiz-adv-x="1081" d="M82 223v127l414 1084h241l-364 -971h250v270h245v-270h152v-240h-152v-223h-245v223h-541z" />
<glyph unicode="5" horiz-adv-x="1148" d="M113 409.5v14.5h237q4 -45 23.5 -84t51.5 -67.5t72 -45t87 -16.5q49 0 91 18.5t74.5 50t51 73.5t18.5 91t-18.5 91.5t-51 75t-74.5 51t-91 18.5h-420l287 754h606v-240h-465l-107 -276h99q98 0 184 -37t150.5 -101.5t101.5 -150.5t37 -185q0 -98 -37 -184t-101.5 -149.5 t-150.5 -100.5t-184 -37q-92 0 -173 32t-144.5 89.5t-103.5 134t-48 166.5q-2 10 -2 14.5z" />
<glyph unicode="6" horiz-adv-x="1210" d="M154 444q0 18 6 47t15 62t19.5 64.5t20.5 56.5l307 762h256l-190 -521q10 2 18 2.5t19 0.5q98 0 184 -37t150.5 -101.5t101.5 -150.5t37 -185q0 -98 -37 -184t-101.5 -149.5t-150.5 -100.5t-184 -37t-184.5 37t-150 100.5t-100 149.5t-36.5 184zM391 444q0 -49 18.5 -91 t50.5 -73.5t73.5 -50t91.5 -18.5q49 0 91 18.5t74.5 50t51 73.5t18.5 91t-18.5 91.5t-51 75t-74.5 51t-91 18.5t-91 -18.5t-74 -51t-50.5 -75t-18.5 -91.5z" />
<glyph unicode="7" horiz-adv-x="1155" d="M92 1194v240h940v-240l-440 -1194h-285l465 1194h-680z" />
<glyph unicode="8" horiz-adv-x="1169" d="M113 444q0 117 51 197t137 127q-59 45 -94 112.5t-35 159.5q0 86 32 162t88 131.5t131 88t161 32.5t161.5 -32.5t131 -88t88 -131.5t32.5 -162q0 -92 -35.5 -159.5t-95.5 -112.5q86 -47 138.5 -127t52.5 -197q0 -98 -37 -184t-101.5 -149.5t-150.5 -100.5t-184 -37 t-184.5 37t-150 100.5t-100 149.5t-36.5 184zM350 444q0 -49 18.5 -91t50.5 -73.5t74 -50t91 -18.5t91 18.5t74.5 50t51 73.5t18.5 91t-18.5 91.5t-51 75t-74.5 51t-91 18.5t-91 -18.5t-74 -51t-50.5 -75t-18.5 -91.5zM387 1040q0 -86 55.5 -141t141.5 -55t141 55t55 141 t-55 141.5t-141 55.5t-141.5 -55.5t-55.5 -141.5z" />
<glyph unicode="9" horiz-adv-x="1148" d="M92 983q0 98 37 184t101.5 149.5t150.5 100.5t184 37t184.5 -37t150 -100.5t100 -149.5t36.5 -184q0 -18 -6 -47t-15 -61.5t-19.5 -64.5t-20.5 -56l-303 -754h-258l188 512q-10 -2 -18.5 -2h-18.5q-98 0 -184 37t-150.5 101.5t-101.5 150.5t-37 184zM330 983 q0 -49 18.5 -91t51 -75t74.5 -51t91 -18t91 18t74 51t50.5 75t18.5 91t-18.5 91t-50.5 74t-74 50.5t-91 18.5t-91 -18.5t-74.5 -50.5t-51 -74t-18.5 -91z" />
<glyph unicode=":" horiz-adv-x="561" d="M133 121q0 59 44 103t104 44q59 0 103 -44t44 -103t-44 -103.5t-103 -44.5t-103.5 44.5t-44.5 103.5zM133 754q0 59 44 103t104 44q59 0 103 -44t44 -103t-44 -103.5t-103 -44.5t-103.5 44.5t-44.5 103.5z" />
<glyph unicode=";" horiz-adv-x="458" d="M82 121q0 59 44 103t103 44t103.5 -44t44.5 -103q0 -111 -63.5 -204t-209.5 -136l-22 65q59 23 92 52.5t39 74.5q-53 8 -92 50.5t-39 97.5zM82 754q0 59 44 103t103 44t103.5 -44t44.5 -103t-44 -103.5t-104 -44.5q-59 0 -103 44.5t-44 103.5z" />
<glyph unicode="&#x3c;" horiz-adv-x="960" d="M90 373v282l813 353v-263l-549 -231l549 -229v-265z" />
<glyph unicode="=" horiz-adv-x="1097" d="M61 385v240h975v-240h-975zM61 782v240h975v-240h-975z" />
<glyph unicode="&#x3e;" horiz-adv-x="954" d="M84 20v265l549 229l-549 231v263l813 -353v-282z" />
<glyph unicode="?" horiz-adv-x="1071" d="M102 1038q0 84 31 159t86 131t135 89t178 33q88 0 167 -33t139.5 -89t95.5 -131t35 -159q0 -74 -19.5 -142.5t-60.5 -125.5t-103.5 -99t-148.5 -59v-229h-244v448h139q88 0 148.5 45.5t60.5 161.5q0 86 -58 140.5t-151 54.5q-96 0 -143 -58.5t-47 -136.5h-240zM373 121 q0 59 44 103t103 44t103.5 -44t44.5 -103t-44 -103.5t-104 -44.5q-59 0 -103 44.5t-44 103.5z" />
<glyph unicode="@" horiz-adv-x="1748" d="M102 623q0 166 61.5 311t168 252.5t250 169t307.5 61.5q166 0 312.5 -61.5t257 -169t174 -253t63.5 -310.5q0 -125 -18.5 -222.5t-59.5 -165t-107.5 -103.5t-164.5 -38q-41 0 -77 13.5t-63.5 36t-44 53t-16.5 63.5q-43 -55 -120 -91t-153 -36q-96 0 -182 37t-149.5 100.5 t-100.5 149.5t-37 182q0 98 37 183t100.5 149.5t149.5 101.5t182 37q76 0 148 -34.5t125 -102.5v115h198v-654q0 -51 29 -74.5t62.5 -3t62.5 92t29 211.5q0 145 -45 263t-129 200.5t-202 128t-261 45.5q-141 0 -257 -53.5t-198 -141.5t-126 -204t-44 -238q0 -141 53.5 -258 t140.5 -200t199.5 -128t231.5 -45q84 0 161.5 13t149.5 48v-155q-141 -57 -311 -58q-164 0 -307.5 61.5t-250 167t-168 248t-61.5 306.5zM604 602q0 -55 21.5 -104t57.5 -85t85 -57.5t104 -21.5t105.5 16.5t87.5 50t58.5 83.5t21.5 118q0 66 -21.5 117t-58.5 85t-87 51 t-106 17q-55 0 -104 -21.5t-85 -58t-57.5 -86t-21.5 -104.5z" />
<glyph unicode="A" horiz-adv-x="1478" d="M25 0l618 1434h197l614 -1434h-260l-168 387h-575l-166 -387h-260zM549 625h379l-187 475z" />
<glyph unicode="B" horiz-adv-x="1376" d="M143 0v1434h576q96 0 182 -24t150.5 -71t101.5 -119.5t37 -172.5q0 -92 -26.5 -162t-92.5 -129q113 -45 172.5 -142.5t59.5 -214.5q0 -109 -42 -184.5t-110 -122.5t-156 -69.5t-180 -22.5h-672zM387 233h387q51 0 101.5 6.5t91.5 25t66.5 51t25.5 85.5t-11.5 92t-41 66 t-83 39t-135.5 12h-401v-377zM387 848h399q80 0 119 54t39 145q0 86 -63.5 120.5t-175.5 34.5h-318v-354z" />
<glyph unicode="C" horiz-adv-x="1466" d="M82 715q0 158 57.5 294t156.5 235t235.5 156.5t293.5 57.5q164 0 302.5 -61.5t240.5 -167.5l-174 -176q-68 74 -163 116.5t-206 42.5q-106 0 -197 -37.5t-159 -105.5t-105.5 -159t-37.5 -195q0 -106 37.5 -197.5t105.5 -159t159 -105.5t197 -38q123 0 223.5 50t168.5 136 l167 -184q-102 -115 -245.5 -180.5t-313.5 -65.5q-158 0 -294 57.5t-235 157t-156.5 235.5t-57.5 294z" />
<glyph unicode="D" horiz-adv-x="1456" d="M143 0v1434h467q158 0 294 -52.5t235.5 -147.5t157 -226t57.5 -289t-57.5 -290t-157 -227.5t-235.5 -148.5t-294 -53h-467zM387 244h223q104 0 195.5 34.5t159 97t105.5 149.5t38 194q0 104 -38 191t-105.5 148.5t-158.5 95.5t-196 34h-223v-944z" />
<glyph unicode="E" horiz-adv-x="1234" d="M143 0v526v527q0 90 20.5 160.5t65.5 119.5t119 75t178 26h607v-240h-566q-59 0 -95 -11.5t-54.5 -35t-24.5 -60t-6 -88.5v-157h678v-240h-678v-362h746v-240h-990z" />
<glyph unicode="F" horiz-adv-x="1179" d="M143 0v526v527q0 90 20.5 160.5t65.5 119.5t119 75t178 26h592v-240h-551q-59 0 -95 -11.5t-54.5 -35t-24.5 -60t-6 -88.5v-157h660v-240h-660v-602h-244z" />
<glyph unicode="G" horiz-adv-x="1650" d="M82 715q0 158 57.5 294t156.5 235t235.5 156.5t293.5 57.5q117 0 221.5 -31.5t191.5 -88t155.5 -136.5t111.5 -178h-284q-68 86 -170.5 137t-225.5 51q-106 0 -197 -37.5t-159 -105.5t-105.5 -159t-37.5 -195q0 -106 37.5 -197.5t105.5 -159t159 -105.5t197 -38 q86 0 162 25.5t138.5 71.5t107.5 109.5t67 141.5h-495v240h764v-88q0 -158 -57.5 -294t-157 -235.5t-235.5 -157t-294 -57.5t-294 57.5t-235 157t-156.5 235.5t-57.5 294z" />
<glyph unicode="H" horiz-adv-x="1462" d="M143 0v1434h244v-594h688v594h244v-1434h-244v602h-688v-602h-244z" />
<glyph unicode="I" horiz-adv-x="530" d="M143 0v1434h244v-1434h-244z" />
<glyph unicode="J" horiz-adv-x="1185" d="M51 451h219q0 -43 13.5 -87.5t44 -78t80 -55t120.5 -21.5q49 0 97.5 12t87.5 40t62.5 74t23.5 116v983h243v-983q0 -98 -39.5 -185.5t-108.5 -152t-163 -102.5t-203 -38q-98 0 -185 38t-151.5 102.5t-102.5 151.5t-38 186z" />
<glyph unicode="K" horiz-adv-x="1341" d="M143 0v1434h244v-603l596 603h324l-641 -648l665 -786l-299 -2l-522 618l-123 -116v-500h-244z" />
<glyph unicode="L" horiz-adv-x="1142" d="M143 381v1053h244v-1000q0 -51 6 -88t24.5 -60.5t54.5 -34.5t95 -11h553v-240h-594q-104 0 -178 25.5t-119 75t-65.5 120t-20.5 160.5z" />
<glyph unicode="M" horiz-adv-x="1708" d="M143 0v1434h222l495 -641l479 641h226v-1434h-244v1038l-461 -614l-471 612v-1036h-246z" />
<glyph unicode="N" horiz-adv-x="1525" d="M143 0v1434h234l762 -940v940h243v-1434h-172l-823 1040v-1040h-244z" />
<glyph unicode="O" horiz-adv-x="1650" d="M82 715q0 158 57.5 294t156.5 235t235.5 156.5t293.5 57.5q158 0 294 -57.5t235.5 -156.5t157 -235.5t57.5 -293.5q0 -158 -57.5 -294t-157 -235.5t-235.5 -157t-294 -57.5t-294 57.5t-235 157t-156.5 235.5t-57.5 294zM326 715q0 -106 37.5 -197.5t105.5 -159 t159 -105.5t197 -38q104 0 195.5 38t159 105.5t105.5 158.5t38 198q0 104 -38 195t-105.5 159t-158.5 105.5t-196 37.5q-106 0 -197 -37.5t-159 -105.5t-105.5 -159t-37.5 -195z" />
<glyph unicode="P" horiz-adv-x="1261" d="M143 0v1434h576q111 0 199 -34t149 -92.5t94 -137t33 -169.5q0 -123 -42 -216t-111.5 -155.5t-156.5 -93t-177 -30.5h-320v-506h-244zM387 745h268q61 0 116.5 10.5t95.5 38t63.5 78t23.5 129.5q0 61 -23.5 103.5t-63.5 67t-95 35t-117 10.5h-268v-472z" />
<glyph unicode="Q" horiz-adv-x="1703" d="M82 715q0 158 57.5 294t156.5 235t235.5 156.5t293.5 57.5q158 0 294 -57.5t235.5 -156.5t157 -235.5t57.5 -293.5q0 -129 -38 -243t-108 -208l199 -172l-158 -160l-202 174q-92 -66 -203 -100.5t-234 -34.5q-158 0 -294 57.5t-235 157t-156.5 235.5t-57.5 294zM326 715 q0 -106 37.5 -197.5t105.5 -159t159 -105.5t197 -38q66 0 128.5 16.5t115.5 44.5l-158 140l158 159l168 -147q41 59 63.5 132t22.5 155q0 104 -38 195t-105.5 159t-158.5 105.5t-196 37.5q-106 0 -197 -37.5t-159 -105.5t-105.5 -159t-37.5 -195z" />
<glyph unicode="R" horiz-adv-x="1323" d="M145 0v1434h576q111 0 199 -34t149 -92.5t94 -137t33 -169.5q0 -92 -24.5 -166.5t-65.5 -133t-96.5 -98.5t-118.5 -64l401 -539h-311l-379 506h-213v-506h-244zM389 745h268q61 0 116.5 10.5t95.5 38t63.5 78t23.5 129.5q0 61 -23.5 103.5t-63.5 67t-95 35t-117 10.5 h-268v-472z" />
<glyph unicode="S" horiz-adv-x="1251" d="M90 213l121 184q55 -43 105.5 -78.5t101.5 -60.5t107.5 -38t123.5 -13q74 0 136.5 14.5t107.5 40t70.5 60t25.5 73.5q0 72 -51 111t-137 67q-123 39 -240 76t-209 89.5t-148.5 128t-56.5 190.5q0 100 43 179t116 131t166 80t196 28q123 0 247.5 -50.5t229.5 -128.5 l-103 -188q-111 78 -205 104.5t-180 26.5q-55 0 -101 -12.5t-81 -34t-54.5 -51t-19.5 -66.5q0 -74 61.5 -118t155 -75.5t201 -62.5t200.5 -79t154.5 -122.5t61.5 -197.5q0 -113 -48 -197t-130 -139t-187.5 -83t-220.5 -28q-154 0 -298 68t-261 172z" />
<glyph unicode="T" horiz-adv-x="1193" d="M20 1194v240h1154v-240h-455v-1194h-244v1194h-455z" />
<glyph unicode="U" horiz-adv-x="1497" d="M154 600v834h243v-824q0 -70 13.5 -140.5t52.5 -127.5t108.5 -93t180.5 -36q106 0 174.5 38t106.5 94t52.5 125t14.5 130v834h243v-822q0 -158 -43 -276.5t-120.5 -198.5t-187 -120t-244.5 -40q-133 0 -243 40t-187.5 119t-120.5 196t-43 268z" />
<glyph unicode="V" horiz-adv-x="1452" d="M20 1434h273l434 -1057l436 1057h269l-617 -1434h-180z" />
<glyph unicode="W" horiz-adv-x="2168" d="M20 1434h273l315 -1057l344 1057h269l315 -1057l344 1057h268l-524 -1434h-180l-365 1051l-383 -1051h-180z" />
<glyph unicode="X" horiz-adv-x="1431" d="M16 1434h281l418 -543l420 543h280l-559 -723l549 -711h-281l-409 528l-408 -528h-280l548 711z" />
<glyph unicode="Y" horiz-adv-x="1304" d="M4 1434h272l379 -580l363 580h282l-522 -830v-604h-243v602z" />
<glyph unicode="Z" horiz-adv-x="1122" d="M31 0v195l731 999h-725v240h1028v-220l-711 -974h738v-240h-1061z" />
<glyph unicode="[" horiz-adv-x="688" d="M205 -264v1696h401v-238h-164v-1219h164v-239h-401z" />
<glyph unicode="\" horiz-adv-x="819" d="M14 1540h240l520 -1690h-239z" />
<glyph unicode="]" horiz-adv-x="688" d="M82 -25h164v1219h-164v238h401v-1696h-401v239z" />
<glyph unicode="^" horiz-adv-x="1015" d="M16 618l353 812h282l353 -814h-265l-229 549l-231 -549z" />
<glyph unicode="_" horiz-adv-x="1196" d="M0 -121h1198v-239h-1198v239z" />
<glyph unicode="`" horiz-adv-x="634" d="M51 1356l84 151l455 -243l-86 -148z" />
<glyph unicode="a" horiz-adv-x="1284" d="M78 524q0 115 43 215.5t118.5 176t175 118.5t214.5 43q90 0 174 -40t145 -119v133h234v-1051h-234v121q-25 -33 -60.5 -59.5t-78.5 -46t-89 -31t-91 -11.5q-115 0 -214.5 43t-175 119t-118.5 175.5t-43 213.5zM313 524q0 -66 24.5 -123t68 -100t100.5 -67.5t123 -24.5 t124 19.5t101 59.5t68.5 99t25.5 137t-25.5 137.5t-68.5 99.5t-101.5 60.5t-123.5 20.5q-66 0 -123 -24.5t-100.5 -67.5t-68 -101.5t-24.5 -124.5z" />
<glyph unicode="b" horiz-adv-x="1304" d="M125 1495h235v-577q49 72 137.5 115.5t178.5 43.5q115 0 215 -43t176 -118.5t119 -176t43 -215.5t-43 -214t-119 -175t-176 -119t-215 -43t-214.5 43t-174 119t-117.5 175.5t-43 213.5zM360 524q0 -76 25 -135t68 -99t100 -60.5t123 -20.5t124 24.5t101 67.5t67.5 100.5 t24.5 122.5q0 66 -24.5 124.5t-67.5 101.5t-101.5 67.5t-123.5 24.5q-66 0 -123 -21.5t-100 -62.5t-68 -100.5t-25 -133.5z" />
<glyph unicode="c" horiz-adv-x="1103" d="M72 524q0 115 43 215.5t118.5 176t175 118.5t214.5 43q125 0 231.5 -50t181.5 -136l-168 -164q-43 53 -107.5 84t-137.5 31q-66 0 -123.5 -24.5t-100.5 -67.5t-67.5 -101.5t-24.5 -124.5t24.5 -123t67.5 -100t100.5 -67.5t123.5 -24.5q78 0 143 33.5t108 91.5l179 -154 q-78 -94 -188.5 -150.5t-241.5 -56.5q-115 0 -214.5 43t-175 119t-118.5 175.5t-43 213.5z" />
<glyph unicode="d" d="M78 524q0 115 43 215.5t118.5 176t176 118.5t215.5 43q90 0 178 -44t137 -115v577h236l-2 -971q0 -115 -43 -214t-118 -175t-175.5 -119t-212.5 -43q-115 0 -215.5 43t-176 119t-118.5 175.5t-43 213.5zM313 524q0 -66 24.5 -123t68 -100t101.5 -67.5t124 -24.5t123 20.5 t100 60.5t67.5 99t24.5 135q0 74 -24.5 133.5t-67.5 100.5t-100.5 62.5t-122.5 21.5q-66 0 -124 -24.5t-101.5 -67.5t-68 -101.5t-24.5 -124.5z" />
<glyph unicode="e" horiz-adv-x="1187" d="M72 524q0 115 39 215.5t108.5 176t164.5 118.5t210 43t211 -43t164.5 -118.5t107.5 -176t39 -215.5v-102h-794q27 -94 97 -153.5t175 -59.5q63 0 117.5 21.5t97.5 60.5h285q-33 -70 -84.5 -128.5t-116 -100.5t-141 -65.5t-158.5 -23.5q-115 0 -210 43t-164.5 119 t-108.5 175.5t-39 213.5zM319 623h549q-25 96 -96.5 157.5t-177.5 61.5t-178 -61.5t-97 -157.5z" />
<glyph unicode="f" horiz-adv-x="602" d="M31 821v232h102v59v19q0 80 31 144q35 71 96.5 119t142 73.5t170.5 25.5h29v-227h-29q-57 0 -96 -8.5t-62.5 -32t-33.5 -63.5t-10 -101v-8h231v-232h-231v-821h-238v821h-102z" />
<glyph unicode="g" horiz-adv-x="1304" d="M78 524q0 115 43 215.5t118.5 176t175 118.5t214.5 43q90 0 174 -40t145 -119v133h234v-992q0 -133 -42 -240.5t-118 -184t-180.5 -117.5t-229.5 -41q-53 0 -118.5 11t-135 32.5t-135 52.5t-119.5 68l109 186q92 -66 187.5 -93.5t209.5 -27.5q72 0 133.5 19.5t107.5 62.5 t71.5 109.5t25.5 158.5v66q-25 -33 -60.5 -59.5t-78.5 -46t-89 -31t-91 -11.5q-115 0 -214.5 43t-175 119t-118.5 175.5t-43 213.5zM313 524q0 -66 24.5 -123t68 -100t100.5 -67.5t123 -24.5t124 19.5t101 59.5t68.5 99t25.5 137t-25.5 137.5t-68.5 99.5t-101.5 60.5 t-123.5 20.5q-66 0 -123 -24.5t-100.5 -67.5t-68 -101.5t-24.5 -124.5z" />
<glyph unicode="h" horiz-adv-x="1187" d="M123 0v1495h237v-526q53 47 119 76.5t146 29.5q113 0 198.5 -39t144 -107.5t88 -161.5t29.5 -204v-563h-237v563q0 158 -59.5 224.5t-170.5 66.5q-156 0 -258 -96v-758h-237z" />
<glyph unicode="i" horiz-adv-x="540" d="M123 1329q0 59 44 103.5t103 44.5t103.5 -44t44.5 -104q0 -59 -44 -103t-104 -44q-59 0 -103 44t-44 103zM162 0v1051h237v-1051h-237z" />
<glyph unicode="j" horiz-adv-x="532" d="M0 -238q53 0 84 11.5t46 33t19.5 53t4.5 70.5v1121h237v-1121q0 -121 -23.5 -199.5t-70.5 -125.5t-122 -65.5t-175 -18.5v241zM115 1329q0 59 44 103.5t103 44.5t103.5 -44t44.5 -104q0 -59 -44 -103t-104 -44q-59 0 -103 44t-44 103z" />
<glyph unicode="k" horiz-adv-x="1148" d="M123 0v1495h237v-782l410 428h328l-477 -498l518 -643h-314l-364 469l-101 -104v-365h-237z" />
<glyph unicode="l" horiz-adv-x="483" d="M123 0v1495h237v-1495h-237z" />
<glyph unicode="m" horiz-adv-x="1804" d="M123 0v1051h237v-82q53 47 105.5 76.5t132.5 29.5q127 0 213 -48t139 -134q57 72 133 127t179 55q113 0 195.5 -39t137 -107.5t81 -161.5t26.5 -204v-563h-238v563q0 158 -49 224.5t-160 66.5q-70 0 -124 -21.5t-99 -58.5v-211v-563h-237v563q0 158 -46.5 224.5 t-156.5 66.5q-78 0 -130 -24.5t-102 -71.5v-758h-237z" />
<glyph unicode="n" horiz-adv-x="1187" d="M123 0v1051h237v-82q53 47 119 76.5t146 29.5q113 0 198.5 -39t144 -107.5t88 -161.5t29.5 -204v-563h-237v563q0 158 -59.5 224.5t-170.5 66.5q-156 0 -258 -96v-758h-237z" />
<glyph unicode="o" horiz-adv-x="1247" d="M72 524q0 115 43 215.5t118.5 176t175 118.5t214.5 43t215 -43t176 -118.5t119 -176t43 -215.5t-43 -214t-119 -175t-176.5 -119t-214.5 -43q-115 0 -214.5 43t-175 119t-118.5 175t-43 214zM307 524q0 -66 24.5 -123t67.5 -100t100.5 -67.5t123.5 -24.5t124 24.5 t101 67.5t67.5 100.5t24.5 122.5q0 66 -24.5 124.5t-67.5 101.5t-101.5 67.5t-123.5 24.5q-66 0 -123.5 -24.5t-100.5 -67.5t-67.5 -101.5t-24.5 -124.5z" />
<glyph unicode="p" d="M123 -481l2 1007q0 113 43 213.5t117.5 176t174 118.5t214.5 43t215 -43t176 -118.5t119 -176t43 -213.5q0 -115 -43 -215t-119 -176t-176.5 -119t-214.5 -43q-90 0 -178 44t-138 116v-614h-235zM358 526q0 -74 25 -133t68 -100t100 -62.5t123 -21.5t124 24.5t101 67.5 t67.5 101.5t24.5 123.5q0 66 -24.5 123.5t-67.5 100.5t-101.5 67.5t-123.5 24.5q-66 0 -123 -20.5t-100 -60.5t-68 -99.5t-25 -135.5z" />
<glyph unicode="q" horiz-adv-x="1288" d="M82 526q0 113 43 213.5t118.5 176t176 118.5t215.5 43q113 0 213 -43t175 -118.5t118 -176t43 -213.5l2 -1007h-236v614q-49 -72 -137 -116t-178 -44q-115 0 -215.5 43t-176 119t-118.5 176.5t-43 214.5zM317 526q0 -66 25 -124t68 -101t101 -67.5t124 -24.5t123 21.5 t100 62.5t67.5 100t24.5 133q0 76 -24.5 135.5t-67.5 99.5t-100.5 60.5t-122.5 20.5q-66 0 -124 -24.5t-101 -67.5t-68 -100.5t-25 -123.5z" />
<glyph unicode="r" horiz-adv-x="737" d="M123 0v1051h237v-144q25 43 61 76t79 55.5t91 31.5q39 7 78 7h17v-227q-63 -8 -121.5 -27.5t-103.5 -56.5t-73 -95.5t-28 -144.5v-526h-237z" />
<glyph unicode="s" horiz-adv-x="1013" d="M72 111l133 190q43 -27 81 -45t76.5 -30.5t80.5 -17.5t96 -5q80 0 125 20.5t45 61.5v4q0 57 -59.5 91t-164.5 64q-80 23 -149.5 49.5t-121.5 63.5t-82 88t-30 125v4q0 68 36 124t94.5 96t134 61.5t153.5 21.5h4q86 0 189.5 -23.5t199.5 -70.5l-100 -197 q-78 39 -144.5 56.5t-152.5 17.5q-47 0 -75.5 -6t-45 -15.5t-21.5 -22.5t-5 -25v-5q0 -27 15 -44t43 -30.5t69 -26.5t94 -32q82 -29 150.5 -59.5t117.5 -71.5t77 -93t28 -124v-4q0 -76 -38 -135.5t-99.5 -101t-138.5 -63t-157 -21.5q-49 0 -107 8t-118.5 24.5t-121 41 t-111.5 57.5z" />
<glyph unicode="t" horiz-adv-x="616" d="M20 821v232h142v381h244v-381h174v-232h-174v-387q0 -51 6 -88t24.5 -60.5t54 -34.5t95.5 -11h10v-240h-51q-104 0 -178 25.5t-119 75t-65.5 120t-20.5 160.5v440h-142z" />
<glyph unicode="u" horiz-adv-x="1187" d="M102 487v564h238v-564q0 -158 59.5 -224t169.5 -66q78 0 143.5 24.5t114.5 71.5v758h238v-1051h-238v82q-53 -47 -118.5 -77t-145.5 -30q-113 0 -198.5 39t-144 107.5t-88.5 162t-30 203.5z" />
<glyph unicode="v" horiz-adv-x="1071" d="M10 1051h256l271 -674l272 674h252l-453 -1051h-147z" />
<glyph unicode="w" horiz-adv-x="1697" d="M20 1051h256l199 -674l227 674h293l230 -674l200 674h252l-360 -1051h-168l-301 831l-301 -831h-168z" />
<glyph unicode="x" horiz-adv-x="1153" d="M18 0l418 541l-395 510h281l253 -330l256 330h281l-395 -510l418 -541h-281l-279 358l-276 -358h-281z" />
<glyph unicode="y" horiz-adv-x="1189" d="M102 -424l91 193q70 -35 143.5 -54.5t159.5 -19.5q66 0 126 18.5t106 55t73.5 93t27.5 134.5v86q-53 -47 -118.5 -77t-145.5 -30q-113 0 -198.5 39t-144 107.5t-88.5 162t-30 203.5v564h238v-564q0 -158 59.5 -224t169.5 -66q78 0 143.5 24.5t114.5 71.5v758h238v-992 q0 -133 -42 -240.5t-118 -184t-180 -117.5t-229 -41q-82 0 -189.5 26.5t-206.5 73.5z" />
<glyph unicode="z" horiz-adv-x="960" d="M41 0v131l575 680h-559v240h863v-209l-488 -602h475v-240h-866z" />
<glyph unicode="{" horiz-adv-x="630" d="M20 551v145q33 0 62 12.5t51.5 33t35.5 49t13 61.5v278q0 147 103.5 225.5t308.5 78.5v-211q-33 0 -61.5 -5.5t-51 -22.5t-36 -48t-13.5 -80v-219q0 -72 -29.5 -130.5t-76.5 -99.5q47 -41 76.5 -99t29.5 -128v-301q0 -66 48 -104.5t114 -38.5v-209q-412 0 -412 301v356 q0 63 -44 107.5t-105 48.5h-13z" />
<glyph unicode="|" horiz-adv-x="442" d="M102 -440v2128h238v-2128h-238z" />
<glyph unicode="}" horiz-adv-x="632" d="M35 -53q66 0 114 39t48 104v301q0 70 29.5 128.5t76.5 98.5q-47 41 -76.5 99.5t-29.5 130.5v219q0 49 -13.5 80t-36 48t-51 22.5t-61.5 5.5v211q205 0 308 -78t103 -226v-278q0 -33 13.5 -61.5t36 -49t51 -33t61.5 -12.5v-145h-12q-61 -4 -105.5 -48t-44.5 -108v-356 q0 -301 -411 -301v209z" />
<glyph unicode="~" horiz-adv-x="1019" d="M41 788v117h182v-117q0 -43 32 -74.5t75 -31.5q33 0 60.5 21.5t55.5 48.5q20 20 43 40.5t50.5 37t61.5 26.5t75 10q61 0 113.5 -22.5t90.5 -60.5t60.5 -90t22.5 -113v-117h-183v117q0 43 -31.5 73.5t-74.5 30.5q-33 0 -60.5 -20.5t-54.5 -49.5q-41 -39 -93 -75.5 t-138 -36.5q-61 0 -113.5 22.5t-90.5 60.5t-60.5 90t-22.5 113z" />
<glyph unicode="&#xa2;" horiz-adv-x="1165" d="M102 524q0 115 43 215.5t119 176t175.5 118.5t213.5 43q125 0 231.5 -50t182.5 -136l-168 -164q-43 53 -107.5 84t-138.5 31q-66 0 -123 -24.5t-100 -67.5t-67.5 -101.5t-24.5 -124.5t24.5 -123t67.5 -100t100.5 -67.5t122.5 -24.5q78 0 143.5 33.5t108.5 91.5l178 -154 q-78 -94 -188.5 -150.5t-241.5 -56.5q-115 0 -214 43t-175 119t-119 175.5t-43 213.5zM551 -350v1720h137v-1720h-137z" />
<glyph unicode="&#xa3;" horiz-adv-x="1116" d="M59 569v203h101v238q0 88 34.5 169t94 141t138.5 96t169 36q92 0 174 -36t142.5 -96t95 -141t34.5 -169v-39h-239v39q0 125 -46 172t-161 47q-39 0 -74 -10.5t-61.5 -36t-42 -67.5t-15.5 -105v-238h213v-203h-213v-329h633v-240h-876v569h-101z" />
<glyph unicode="&#xa5;" horiz-adv-x="1345" d="M25 1434h272l379 -580l362 580h283l-522 -830v-604h-244v602zM205 313v133h330h608v-133h-586h-352zM205 553v133h362h576v-133h-606h-332z" />
<glyph unicode="&#xa8;" horiz-adv-x="845" d="M63 1661q0 59 44.5 103t103.5 44t103 -44t44 -103t-44 -103.5t-103 -44.5t-103.5 44.5t-44.5 103.5zM489 1661q0 59 44.5 103t103.5 44t103 -44t44 -103t-44 -103.5t-103 -44.5t-103.5 44.5t-44.5 103.5z" />
<glyph unicode="&#xa9;" horiz-adv-x="1544" d="M106 715q0 141 51.5 263t141.5 213t213 142t264 51t263 -51t213 -142t142.5 -213t51.5 -263t-51.5 -264t-142.5 -213.5t-212.5 -141.5t-263.5 -51q-141 0 -264 51t-213 141.5t-141.5 213.5t-51.5 264zM250 715q0 -113 40 -209t110.5 -167t167 -111t208.5 -40 q111 0 207 40t167 111t110.5 167t39.5 209q0 111 -39.5 207t-110.5 166.5t-167 110.5t-207 40q-113 0 -209 -40t-166.5 -110.5t-110.5 -166.5t-40 -207zM379 715q0 84 30.5 156.5t84 126t126 84t156.5 30.5q88 0 163 -31.5t128 -91.5l-92 -94q-35 41 -86 63.5t-113 22.5 q-55 0 -104 -20.5t-84 -56.5t-55.5 -85t-20.5 -104q0 -57 20.5 -106.5t55.5 -85.5t84 -56.5t104 -20.5q66 0 120 28t89 75l94 -103q-57 -59 -134 -94t-169 -35q-84 0 -156.5 30t-126 83t-84 126t-30.5 159z" />
<glyph unicode="&#xab;" horiz-adv-x="1253" d="M25 510l510 510l129 -135l-377 -375l377 -377l-129 -133zM545 510l510 510l129 -135l-377 -375l377 -377l-129 -133z" />
<glyph unicode="&#xad;" horiz-adv-x="821" d="M61 487v240h699v-240h-699z" />
<glyph unicode="&#xae;" horiz-adv-x="1531" d="M106 715q0 141 51.5 263t141.5 213t213 142t264 51t263 -51t213 -142t142.5 -213t51.5 -263t-51.5 -264t-142.5 -213.5t-212.5 -141.5t-263.5 -51q-141 0 -264 51t-213 141.5t-141.5 213.5t-51.5 264zM250 715q0 -113 40 -209t110.5 -167t167 -111t208.5 -40 q111 0 207 40t167 111t110.5 167t39.5 209q0 111 -39.5 207t-110.5 166.5t-167 110.5t-207 40q-113 0 -209 -40t-166.5 -110.5t-110.5 -166.5t-40 -207zM508 354v731h293q113 0 177 -64.5t64 -156.5t-45 -151.5t-110 -83.5l203 -275h-156l-195 258h-110v-258h-121zM629 735 h139q63 0 107.5 24.5t44.5 104.5q0 66 -44.5 89.5t-107.5 23.5h-139v-242z" />
<glyph unicode="&#xb1;" horiz-adv-x="1212" d="M82 61v240h1014v-240h-1014zM102 836v239h375v375h240v-375h375v-239h-375v-375h-240v375h-375z" />
<glyph unicode="&#xb4;" horiz-adv-x="411" d="M39 1174l104 260h219l-104 -260h-219z" />
<glyph unicode="&#xb5;" horiz-adv-x="1228" d="M123 -406v1043h237v-1043h-237zM123 487v564h237v-564q0 -158 59.5 -224t170.5 -66q78 0 143.5 24.5t114.5 71.5v758h237v-1051h-237v82q-53 -47 -118.5 -77t-145.5 -30q-113 0 -199 39t-144.5 107.5t-88 162t-29.5 203.5z" />
<glyph unicode="&#xb6;" horiz-adv-x="1705" />
<glyph unicode="&#xb7;" horiz-adv-x="415" d="M61 709q0 59 44.5 103t103.5 44t103 -44t44 -103t-44 -103.5t-103 -44.5t-103.5 44.5t-44.5 103.5z" />
<glyph unicode="&#xb8;" horiz-adv-x="471" d="M82 0h143v-113q43 0 83 -17t69 -46t46 -68t17 -84t-17 -84t-46 -67.5t-69 -45t-83 -16.5h-143v144h143q29 0 49.5 20.5t20.5 48.5q0 29 -20.5 50.5t-49.5 21.5h-143v256z" />
<glyph unicode="&#xbb;" horiz-adv-x="1380" d="M125 133l377 377l-377 375l129 135l510 -510l-510 -510zM645 133l377 377l-377 375l129 135l510 -510l-510 -510z" />
<glyph unicode="&#xbf;" horiz-adv-x="1046" d="M123 385q0 74 19.5 142.5t60.5 126t103.5 99.5t148.5 58v229h243v-448h-139q-88 0 -148.5 -45t-60.5 -162q0 -86 58.5 -140.5t150.5 -54.5q96 0 143.5 58.5t47.5 136.5h239q0 -84 -30.5 -158.5t-86 -131t-135.5 -89.5t-178 -33q-88 0 -167 33t-139 89.5t-95 131 t-35 158.5zM424 1303q0 59 44 103t103 44t103.5 -44t44.5 -103t-44 -103.5t-104 -44.5q-59 0 -103 44t-44 104z" />
<glyph unicode="&#xc0;" horiz-adv-x="1519" d="M45 0l618 1434h197l614 -1434h-260l-168 387h-575l-166 -387h-260zM530 1755l84 151l455 -243l-86 -148zM569 625h379l-187 475z" />
<glyph unicode="&#xc1;" horiz-adv-x="1519" d="M45 0l618 1434h197l614 -1434h-260l-168 387h-575l-166 -387h-260zM428 1665l86 -148l453 240l-84 151zM569 625h379l-187 475z" />
<glyph unicode="&#xc2;" horiz-adv-x="1519" d="M45 0l618 1434h197l614 -1434h-260l-168 387h-575l-166 -387h-260zM487 1525l186 267h183l188 -267h-190l-88 131l-95 -131h-184zM569 625h379l-187 475z" />
<glyph unicode="&#xc3;" horiz-adv-x="1519" d="M45 0l618 1434h197l614 -1434h-260l-168 387h-575l-166 -387h-260zM483 1622q49 86 134 108.5t171 -24.5q31 -18 57.5 -9t44.5 40l127 -76q-49 -86 -134 -108.5t-171 26.5q-31 20 -57.5 10t-44.5 -43zM569 625h379l-187 475z" />
<glyph unicode="&#xc4;" horiz-adv-x="1519" d="M45 0l618 1434h197l614 -1434h-260l-168 387h-575l-166 -387h-260zM403 1661q0 59 44.5 103t103.5 44t103 -44t44 -103t-44 -103.5t-103 -44.5t-103.5 44.5t-44.5 103.5zM569 625h379l-187 475zM829 1661q0 59 44.5 103t103.5 44t103 -44t44 -103t-44 -103.5t-103 -44.5 t-103.5 44.5t-44.5 103.5z" />
<glyph unicode="&#xc6;" horiz-adv-x="1839" d="M45 0l619 1434h337h748v-240h-745v-195v-157h677v-240h-677v-362h745v-240h-997v387h-281l-166 -387h-260zM569 625h183l2 475z" />
<glyph unicode="&#xc7;" horiz-adv-x="1507" d="M102 715q0 158 57.5 294t156.5 235t235.5 156.5t293.5 57.5q164 0 302.5 -61.5t240.5 -167.5l-174 -176q-68 74 -163 116.5t-206 42.5q-106 0 -197 -37.5t-159 -105.5t-105.5 -159t-37.5 -195q0 -106 37.5 -197.5t105.5 -159t159 -105.5t197 -38q123 0 223.5 50 t168.5 136l167 -184q-102 -115 -245.5 -180.5t-313.5 -65.5q-158 0 -294 57.5t-235 157t-156.5 235.5t-57.5 294zM727 0h143v-113q43 0 83 -17t69 -46t46 -68t17 -84t-17 -84t-46 -67.5t-69 -45t-83 -16.5h-143v144h143q29 0 49.5 20.5t20.5 48.5q0 29 -20.5 50.5 t-49.5 21.5h-143v256z" />
<glyph unicode="&#xc8;" horiz-adv-x="1275" d="M163 0v526v527q0 90 20.5 160.5t65.5 119.5t119 75t178 26h607v-240h-566q-59 0 -95 -11.5t-54.5 -35t-24.5 -60t-6 -88.5v-157h678v-240h-678v-362h746v-240h-990zM418 1757l84 151l455 -243l-86 -148z" />
<glyph unicode="&#xc9;" horiz-adv-x="1200" d="M110 0v526v527q0 90 20.5 160.5t65.5 119.5t119 75t178 26h607v-240h-566q-59 0 -95 -11.5t-54.5 -35t-24.5 -60t-6 -88.5v-157h678v-240h-678v-362h746v-240h-990zM377 1665l86 -148l453 240l-84 151z" />
<glyph unicode="&#xca;" horiz-adv-x="1275" d="M163 0v526v527q0 90 20.5 160.5t65.5 119.5t119 75t178 26h607v-240h-566q-59 0 -95 -11.5t-54.5 -35t-24.5 -60t-6 -88.5v-157h678v-240h-678v-362h746v-240h-990zM432 1575l186 267h183l188 -267h-190l-88 131l-95 -131h-184z" />
<glyph unicode="&#xcb;" horiz-adv-x="1275" d="M163 0v526v527q0 90 20.5 160.5t65.5 119.5t119 75t178 26h607v-240h-566q-59 0 -95 -11.5t-54.5 -35t-24.5 -60t-6 -88.5v-157h678v-240h-678v-362h746v-240h-990zM307 1772q0 59 44.5 103t103.5 44t103 -44t44 -103t-44 -103.5t-103 -44.5t-103.5 44.5t-44.5 103.5z M733 1772q0 59 44.5 103t103.5 44t103 -44t44 -103t-44 -103.5t-103 -44.5t-103.5 44.5t-44.5 103.5z" />
<glyph unicode="&#xcc;" horiz-adv-x="571" d="M4 1757l84 151l455 -243l-86 -148zM163 0v1434h244v-1434h-244z" />
<glyph unicode="&#xcd;" horiz-adv-x="571" d="M0 1665l86 -148l453 240l-84 151zM163 0v1434h244v-1434h-244z" />
<glyph unicode="&#xce;" horiz-adv-x="571" d="M2 1575l186 267h183l188 -267h-190l-88 131l-95 -131h-184zM163 0v1434h244v-1434h-244z" />
<glyph unicode="&#xcf;" horiz-adv-x="571" d="M-78 1661q0 59 44.5 103t103.5 44t103 -44t44 -103t-44 -103.5t-103 -44.5t-103.5 44.5t-44.5 103.5zM163 0v1434h244v-1434h-244zM348 1661q0 59 44.5 103t103.5 44t103 -44t44 -103t-44 -103.5t-103 -44.5t-103.5 44.5t-44.5 103.5z" />
<glyph unicode="&#xd0;" horiz-adv-x="1376" d="M-78 645v143h203v646h481q147 0 278.5 -56.5t227.5 -153t152.5 -227.5t56.5 -278t-56.5 -278.5t-152.5 -229.5t-227 -154.5t-279 -56.5h-481v645h-203zM268 143h338q119 0 222.5 45t181 124t123 183.5t45.5 223.5t-45.5 222t-123 181t-181 123t-222.5 45h-338v-502h353 v-143h-353v-502z" />
<glyph unicode="&#xd1;" horiz-adv-x="1566" d="M163 0v1434h234l762 -940v940h243v-1434h-172l-823 1040v-1040h-244zM490 1624q49 86 134 108.5t171 -24.5q31 -18 57.5 -9t44.5 40l127 -76q-49 -86 -134 -108.5t-171 26.5q-31 20 -57.5 10t-44.5 -43z" />
<glyph unicode="&#xd2;" horiz-adv-x="1691" d="M102 715q0 158 57.5 294t156.5 235t235.5 156.5t293.5 57.5q158 0 294 -57.5t235.5 -156.5t157 -235.5t57.5 -293.5q0 -158 -57.5 -294t-157 -235.5t-235.5 -157t-294 -57.5t-294 57.5t-235 157t-156.5 235.5t-57.5 294zM346 715q0 -106 37.5 -197.5t105.5 -159 t159 -105.5t197 -38q104 0 195.5 38t159 105.5t105.5 158.5t38 198q0 104 -38 195t-105.5 159t-158.5 105.5t-196 37.5q-106 0 -197 -37.5t-159 -105.5t-105.5 -159t-37.5 -195zM557 1757l84 151l455 -243l-86 -148z" />
<glyph unicode="&#xd3;" horiz-adv-x="1691" d="M102 715q0 158 57.5 294t156.5 235t235.5 156.5t293.5 57.5q158 0 294 -57.5t235.5 -156.5t157 -235.5t57.5 -293.5q0 -158 -57.5 -294t-157 -235.5t-235.5 -157t-294 -57.5t-294 57.5t-235 157t-156.5 235.5t-57.5 294zM346 715q0 -106 37.5 -197.5t105.5 -159 t159 -105.5t197 -38q104 0 195.5 38t159 105.5t105.5 158.5t38 198q0 104 -38 195t-105.5 159t-158.5 105.5t-196 37.5q-106 0 -197 -37.5t-159 -105.5t-105.5 -159t-37.5 -195zM526 1665l86 -148l453 240l-84 151z" />
<glyph unicode="&#xd4;" horiz-adv-x="1691" d="M102 715q0 158 57.5 294t156.5 235t235.5 156.5t293.5 57.5q158 0 294 -57.5t235.5 -156.5t157 -235.5t57.5 -293.5q0 -158 -57.5 -294t-157 -235.5t-235.5 -157t-294 -57.5t-294 57.5t-235 157t-156.5 235.5t-57.5 294zM346 715q0 -106 37.5 -197.5t105.5 -159 t159 -105.5t197 -38q104 0 195.5 38t159 105.5t105.5 158.5t38 198q0 104 -38 195t-105.5 159t-158.5 105.5t-196 37.5q-106 0 -197 -37.5t-159 -105.5t-105.5 -159t-37.5 -195zM528 1575l186 267h183l188 -267h-190l-88 131l-95 -131h-184z" />
<glyph unicode="&#xd5;" horiz-adv-x="1691" d="M102 715q0 158 57.5 294t156.5 235t235.5 156.5t293.5 57.5q158 0 294 -57.5t235.5 -156.5t157 -235.5t57.5 -293.5q0 -158 -57.5 -294t-157 -235.5t-235.5 -157t-294 -57.5t-294 57.5t-235 157t-156.5 235.5t-57.5 294zM346 715q0 -106 37.5 -197.5t105.5 -159 t159 -105.5t197 -38q104 0 195.5 38t159 105.5t105.5 158.5t38 198q0 104 -38 195t-105.5 159t-158.5 105.5t-196 37.5q-106 0 -197 -37.5t-159 -105.5t-105.5 -159t-37.5 -195zM559 1671q49 86 134 108.5t171 -24.5q31 -18 57.5 -9t44.5 40l127 -76q-49 -86 -134 -108.5 t-171 26.5q-31 20 -57.5 10t-44.5 -43z" />
<glyph unicode="&#xd6;" horiz-adv-x="1691" d="M102 715q0 158 57.5 294t156.5 235t235.5 156.5t293.5 57.5q158 0 294 -57.5t235.5 -156.5t157 -235.5t57.5 -293.5q0 -158 -57.5 -294t-157 -235.5t-235.5 -157t-294 -57.5t-294 57.5t-235 157t-156.5 235.5t-57.5 294zM346 715q0 -106 37.5 -197.5t105.5 -159 t159 -105.5t197 -38q104 0 195.5 38t159 105.5t105.5 158.5t38 198q0 104 -38 195t-105.5 159t-158.5 105.5t-196 37.5q-106 0 -197 -37.5t-159 -105.5t-105.5 -159t-37.5 -195zM475 1661q0 59 44.5 103t103.5 44t103 -44t44 -103t-44 -103.5t-103 -44.5t-103.5 44.5 t-44.5 103.5zM901 1661q0 59 44.5 103t103.5 44t103 -44t44 -103t-44 -103.5t-103 -44.5t-103.5 44.5t-44.5 103.5z" />
<glyph unicode="&#xd7;" horiz-adv-x="1198" d="M201 444l266 265l-266 266l170 170l264 -266l266 266l170 -170l-266 -266l266 -265l-170 -170l-266 267l-264 -267z" />
<glyph unicode="&#xd8;" horiz-adv-x="1691" d="M102 715q0 158 57.5 294t157 235t235.5 156.5t294 57.5t294 -57.5t235.5 -156.5t156.5 -235.5t57 -293.5q0 -158 -57 -294t-156.5 -235.5t-235.5 -157t-294 -57.5t-294 57.5t-235.5 157t-157 235.5t-57.5 294zM346 715q0 -106 38 -197.5t105.5 -159t158.5 -105.5t198 -38 q104 0 195.5 38t159 105.5t105 158.5t37.5 198q0 104 -37.5 195t-105 159t-159 105.5t-195.5 37.5q-106 0 -197.5 -37.5t-159 -105.5t-105.5 -159t-38 -195zM463 -150l520 1690h246l-520 -1690h-246z" />
<glyph unicode="&#xd9;" horiz-adv-x="1538" d="M174 600v834h243v-824q0 -70 13.5 -140.5t52.5 -127.5t108.5 -93t180.5 -36q106 0 174.5 38t106.5 94t52.5 125t14.5 130v834h243v-822q0 -158 -43 -276.5t-120.5 -198.5t-187 -120t-244.5 -40q-133 0 -243 40t-187.5 119t-120.5 196t-43 268zM500 1757l84 151l455 -243 l-86 -148z" />
<glyph unicode="&#xda;" horiz-adv-x="1538" d="M174 600v834h243v-824q0 -70 13.5 -140.5t52.5 -127.5t108.5 -93t180.5 -36q106 0 174.5 38t106.5 94t52.5 125t14.5 130v834h243v-822q0 -158 -43 -276.5t-120.5 -198.5t-187 -120t-244.5 -40q-133 0 -243 40t-187.5 119t-120.5 196t-43 268zM489 1665l86 -148l453 240 l-84 151z" />
<glyph unicode="&#xdb;" horiz-adv-x="1538" d="M174 600v834h243v-824q0 -70 13.5 -140.5t52.5 -127.5t108.5 -93t180.5 -36q106 0 174.5 38t106.5 94t52.5 125t14.5 130v834h243v-822q0 -158 -43 -276.5t-120.5 -198.5t-187 -120t-244.5 -40q-133 0 -243 40t-187.5 119t-120.5 196t-43 268zM510 1575l186 267h183 l188 -267h-190l-88 131l-95 -131h-184z" />
<glyph unicode="&#xdc;" horiz-adv-x="1538" d="M174 600v834h243v-824q0 -70 13.5 -140.5t52.5 -127.5t108.5 -93t180.5 -36q106 0 174.5 38t106.5 94t52.5 125t14.5 130v834h243v-822q0 -158 -43 -276.5t-120.5 -198.5t-187 -120t-244.5 -40q-133 0 -243 40t-187.5 119t-120.5 196t-43 268zM403 1661q0 59 44.5 103 t103.5 44t103 -44t44 -103t-44 -103.5t-103 -44.5t-103.5 44.5t-44.5 103.5zM829 1661q0 59 44.5 103t103.5 44t103 -44t44 -103t-44 -103.5t-103 -44.5t-103.5 44.5t-44.5 103.5z" />
<glyph unicode="&#xdd;" horiz-adv-x="1345" d="M24 1434h272l379 -580l363 580h282l-522 -830v-604h-243v602zM518 1575l104 260h219l-104 -260h-219z" />
<glyph unicode="&#xde;" horiz-adv-x="833" d="M82 0v1434h143v-410h78q221 0 348 -102q123 -104 123 -285q0 -92 -31.5 -161.5t-91.5 -123.5q-127 -100 -348 -100h-78v-252h-143zM225 391h82q144 0 232 66q82 66 82 180q0 113 -82 182q-88 66 -232 66h-82v-494z" />
<glyph unicode="&#xdf;" horiz-adv-x="1417" d="M164 0v1434h575q96 0 182.5 -24t151 -71t101 -119.5t36.5 -172.5q0 -92 -26.5 -162t-91.5 -129q113 -45 172 -142.5t59 -214.5q0 -109 -42 -184.5t-109.5 -122.5t-155.5 -69.5t-180 -22.5h-48v233h7q51 0 101 6.5t91 25t66.5 51t25.5 85.5t-11 92t-41 66t-83 39t-135 12 h-401v-610h-244zM408 848h399q80 0 119 54t39 145q0 86 -63.5 120.5t-176.5 34.5h-317v-354z" />
<glyph unicode="&#xe0;" horiz-adv-x="1277" d="M-20 524q0 115 43 215.5t118.5 176t175 118.5t214.5 43q90 0 174 -40t145 -119v133h234v-1051h-234v121q-25 -33 -60.5 -59.5t-78.5 -46t-89 -31t-91 -11.5q-115 0 -214.5 43t-175 119t-118.5 175.5t-43 213.5zM215 524q0 -66 24.5 -123t68 -100t100.5 -67.5t123 -24.5 t124 19.5t101 59.5t68.5 99t25.5 137t-25.5 137.5t-68.5 99.5t-101.5 60.5t-123.5 20.5q-66 0 -123 -24.5t-100.5 -67.5t-68 -101.5t-24.5 -124.5zM327 1385l84 151l455 -243l-86 -148z" />
<glyph unicode="&#xe1;" horiz-adv-x="1277" d="M-20 524q0 115 43 215.5t118.5 176t175 118.5t214.5 43q90 0 174 -40t145 -119v133h234v-1051h-234v121q-25 -33 -60.5 -59.5t-78.5 -46t-89 -31t-91 -11.5q-115 0 -214.5 43t-175 119t-118.5 175.5t-43 213.5zM215 524q0 -66 24.5 -123t68 -100t100.5 -67.5t123 -24.5 t124 19.5t101 59.5t68.5 99t25.5 137t-25.5 137.5t-68.5 99.5t-101.5 60.5t-123.5 20.5q-66 0 -123 -24.5t-100.5 -67.5t-68 -101.5t-24.5 -124.5zM368 1293l86 -148l453 240l-84 151z" />
<glyph unicode="&#xe2;" horiz-adv-x="1277" d="M-20 524q0 115 43 215.5t118.5 176t175 118.5t214.5 43q90 0 174 -40t145 -119v133h234v-1051h-234v121q-25 -33 -60.5 -59.5t-78.5 -46t-89 -31t-91 -11.5q-115 0 -214.5 43t-175 119t-118.5 175.5t-43 213.5zM215 524q0 -66 24.5 -123t68 -100t100.5 -67.5t123 -24.5 t124 19.5t101 59.5t68.5 99t25.5 137t-25.5 137.5t-68.5 99.5t-101.5 60.5t-123.5 20.5q-66 0 -123 -24.5t-100.5 -67.5t-68 -101.5t-24.5 -124.5zM348 1216l186 267h183l188 -267h-190l-88 131l-95 -131h-184z" />
<glyph unicode="&#xe3;" horiz-adv-x="1325" d="M4 524q0 115 43 215.5t118.5 176t175 118.5t214.5 43q90 0 174 -40t145 -119v133h234v-1051h-234v121q-25 -33 -60.5 -59.5t-78.5 -46t-89 -31t-91 -11.5q-115 0 -214.5 43t-175 119t-118.5 175.5t-43 213.5zM239 524q0 -66 24.5 -123t68 -100t100.5 -67.5t123 -24.5 t124 19.5t101 59.5t68.5 99t25.5 137t-25.5 137.5t-68.5 99.5t-101.5 60.5t-123.5 20.5q-66 0 -123 -24.5t-100.5 -67.5t-68 -101.5t-24.5 -124.5zM340 1302q49 86 134 108.5t171 -24.5q31 -18 57.5 -9t44.5 40l127 -76q-49 -86 -134 -108.5t-171 26.5q-31 20 -57.5 10 t-44.5 -43z" />
<glyph unicode="&#xe4;" horiz-adv-x="1325" d="M4 524q0 115 43 215.5t118.5 176t175 118.5t214.5 43q90 0 174 -40t145 -119v133h234v-1051h-234v121q-25 -33 -60.5 -59.5t-78.5 -46t-89 -31t-91 -11.5q-115 0 -214.5 43t-175 119t-118.5 175.5t-43 213.5zM239 524q0 -66 24.5 -123t68 -100t100.5 -67.5t123 -24.5 t124 19.5t101 59.5t68.5 99t25.5 137t-25.5 137.5t-68.5 99.5t-101.5 60.5t-123.5 20.5q-66 0 -123 -24.5t-100.5 -67.5t-68 -101.5t-24.5 -124.5zM294 1374q0 59 44.5 103t103.5 44t103 -44t44 -103t-44 -103.5t-103 -44.5t-103.5 44.5t-44.5 103.5zM720 1374 q0 59 44.5 103t103.5 44t103 -44t44 -103t-44 -103.5t-103 -44.5t-103.5 44.5t-44.5 103.5z" />
<glyph unicode="&#xe6;" horiz-adv-x="2250" d="M19 524q0 115 43 215.5t118.5 176t175 118.5t214.5 43q90 0 174 -40t145 -119v133h234v-1051h-234v121q-25 -33 -60.5 -59.5t-78.5 -46t-89 -31t-91 -11.5q-115 0 -214.5 43t-175 119t-118.5 175.5t-43 213.5zM254 524q0 -66 24.5 -123t68 -100t100.5 -67.5t123 -24.5 t124 19.5t101 59.5t68.5 99t25.5 137t-25.5 137.5t-68.5 99.5t-101.5 60.5t-123.5 20.5q-66 0 -123 -24.5t-100.5 -67.5t-68 -101.5t-24.5 -124.5zM1108 524q0 115 39 215.5t108.5 176t164.5 118.5t210 43t211 -43t164.5 -118.5t107.5 -176t39 -215.5v-102h-794 q27 -94 97 -153.5t175 -59.5q63 0 117.5 21.5t97.5 60.5h285q-33 -70 -84.5 -128.5t-116 -100.5t-141 -65.5t-158.5 -23.5q-115 0 -210 43t-164.5 119t-108.5 175.5t-39 213.5zM1355 623h549q-25 96 -96.5 157.5t-177.5 61.5t-178 -61.5t-97 -157.5z" />
<glyph unicode="&#xe7;" horiz-adv-x="1165" d="M103 524q0 115 43 215.5t118.5 176t175 118.5t214.5 43q125 0 231.5 -50t181.5 -136l-168 -164q-43 53 -107.5 84t-137.5 31q-66 0 -123.5 -24.5t-100.5 -67.5t-67.5 -101.5t-24.5 -124.5t24.5 -123t67.5 -100t100.5 -67.5t123.5 -24.5q78 0 143 33.5t108 91.5l179 -154 q-78 -94 -188.5 -150.5t-241.5 -56.5q-115 0 -214.5 43t-175 119t-118.5 175.5t-43 213.5zM524 0h143v-113q43 0 83 -17t69 -46t46 -68t17 -84t-17 -84t-46 -67.5t-69 -45t-83 -16.5h-143v144h143q29 0 49.5 20.5t20.5 48.5q0 29 -20.5 50.5t-49.5 21.5h-143v256z" />
<glyph unicode="&#xe8;" horiz-adv-x="1208" d="M82 524q0 115 39 215.5t108.5 176t164.5 118.5t210 43t211 -43t164.5 -118.5t107.5 -176t39 -215.5v-102h-794q27 -94 97 -153.5t175 -59.5q63 0 117.5 21.5t97.5 60.5h285q-33 -70 -84.5 -128.5t-116 -100.5t-141 -65.5t-158.5 -23.5q-115 0 -210 43t-164.5 119 t-108.5 175.5t-39 213.5zM327 1385l84 151l455 -243l-86 -148zM329 623h549q-25 96 -96.5 157.5t-177.5 61.5t-178 -61.5t-97 -157.5z" />
<glyph unicode="&#xe9;" horiz-adv-x="1208" d="M82 524q0 115 39 215.5t108.5 176t164.5 118.5t210 43t211 -43t164.5 -118.5t107.5 -176t39 -215.5v-102h-794q27 -94 97 -153.5t175 -59.5q63 0 117.5 21.5t97.5 60.5h285q-33 -70 -84.5 -128.5t-116 -100.5t-141 -65.5t-158.5 -23.5q-115 0 -210 43t-164.5 119 t-108.5 175.5t-39 213.5zM323 1293l86 -148l453 240l-84 151zM329 623h549q-25 96 -96.5 157.5t-177.5 61.5t-178 -61.5t-97 -157.5z" />
<glyph unicode="&#xea;" horiz-adv-x="1208" d="M82 524q0 115 39 215.5t108.5 176t164.5 118.5t210 43t211 -43t164.5 -118.5t107.5 -176t39 -215.5v-102h-794q27 -94 97 -153.5t175 -59.5q63 0 117.5 21.5t97.5 60.5h285q-33 -70 -84.5 -128.5t-116 -100.5t-141 -65.5t-158.5 -23.5q-115 0 -210 43t-164.5 119 t-108.5 175.5t-39 213.5zM324 1216l186 267h183l188 -267h-190l-88 131l-95 -131h-184zM329 623h549q-25 96 -96.5 157.5t-177.5 61.5t-178 -61.5t-97 -157.5z" />
<glyph unicode="&#xeb;" horiz-adv-x="1208" d="M82 524q0 115 39 215.5t108.5 176t164.5 118.5t210 43t211 -43t164.5 -118.5t107.5 -176t39 -215.5v-102h-794q27 -94 97 -153.5t175 -59.5q63 0 117.5 21.5t97.5 60.5h285q-33 -70 -84.5 -128.5t-116 -100.5t-141 -65.5t-158.5 -23.5q-115 0 -210 43t-164.5 119 t-108.5 175.5t-39 213.5zM239 1374q0 59 44.5 103t103.5 44t103 -44t44 -103t-44 -103.5t-103 -44.5t-103.5 44.5t-44.5 103.5zM329 623h549q-25 96 -96.5 157.5t-177.5 61.5t-178 -61.5t-97 -157.5zM665 1374q0 59 44.5 103t103.5 44t103 -44t44 -103t-44 -103.5 t-103 -44.5t-103.5 44.5t-44.5 103.5z" />
<glyph unicode="&#xec;" horiz-adv-x="581" d="M106 1427h216l104 -260h-215zM182 0h238v1051h-238v-1051z" />
<glyph unicode="&#xed;" horiz-adv-x="581" d="M182 0h238v1051h-238v-1051zM184 1167l105 260h215l-105 -260h-215z" />
<glyph unicode="&#xee;" horiz-adv-x="581" d="M12 1167l187 267h182l188 -267h-190l-88 131l-94 -131h-185zM182 0h238v1051h-238v-1051z" />
<glyph unicode="&#xef;" horiz-adv-x="563" d="M-63 1372q0 59 44 103.5t103 44.5t103 -44t44 -104q0 -59 -44 -103t-103 -44t-103 44t-44 103zM182 0v1051h238v-1051h-238zM362 1372q0 59 44.5 103.5t103.5 44.5t103 -44t44 -104q0 -59 -44 -103t-103 -44t-103.5 44t-44.5 103z" />
<glyph unicode="&#xf1;" horiz-adv-x="1228" d="M143 0v1051h237v-82q53 47 119 76.5t146 29.5q113 0 198.5 -39t144 -107.5t88 -161.5t29.5 -204v-563h-237v563q0 158 -59.5 224.5t-170.5 66.5q-156 0 -258 -96v-758h-237zM320 1266q49 86 134 108.5t171 -24.5q31 -18 57.5 -9t44.5 40l127 -76q-49 -86 -134 -108.5 t-171 26.5q-31 20 -57.5 10t-44.5 -43z" />
<glyph unicode="&#xf2;" d="M103 524q0 115 43 215.5t118.5 176t175 118.5t214.5 43t215 -43t176 -118.5t119 -176t43 -215.5t-43 -214t-119 -175t-176.5 -119t-214.5 -43q-115 0 -214.5 43t-175 119t-118.5 175t-43 214zM338 524q0 -66 24.5 -123t67.5 -100t100.5 -67.5t123.5 -24.5t124 24.5 t101 67.5t67.5 100.5t24.5 122.5q0 66 -24.5 124.5t-67.5 101.5t-101.5 67.5t-123.5 24.5q-66 0 -123.5 -24.5t-100.5 -67.5t-67.5 -101.5t-24.5 -124.5zM356 1415l84 151l455 -243l-86 -148z" />
<glyph unicode="&#xf3;" d="M103 524q0 115 43 215.5t118.5 176t175 118.5t214.5 43t215 -43t176 -118.5t119 -176t43 -215.5t-43 -214t-119 -175t-176.5 -119t-214.5 -43q-115 0 -214.5 43t-175 119t-118.5 175t-43 214zM338 524q0 -66 24.5 -123t67.5 -100t100.5 -67.5t123.5 -24.5t124 24.5 t101 67.5t67.5 100.5t24.5 122.5q0 66 -24.5 124.5t-67.5 101.5t-101.5 67.5t-123.5 24.5q-66 0 -123.5 -24.5t-100.5 -67.5t-67.5 -101.5t-24.5 -124.5zM502 1174l104 260h219l-104 -260h-219z" />
<glyph unicode="&#xf4;" d="M103 524q0 115 43 215.5t118.5 176t175 118.5t214.5 43t215 -43t176 -118.5t119 -176t43 -215.5t-43 -214t-119 -175t-176.5 -119t-214.5 -43q-115 0 -214.5 43t-175 119t-118.5 175t-43 214zM338 524q0 -66 24.5 -123t67.5 -100t100.5 -67.5t123.5 -24.5t124 24.5 t101 67.5t67.5 100.5t24.5 122.5q0 66 -24.5 124.5t-67.5 101.5t-101.5 67.5t-123.5 24.5q-66 0 -123.5 -24.5t-100.5 -67.5t-67.5 -101.5t-24.5 -124.5zM348 1167l186 267h183l188 -267h-190l-88 131l-95 -131h-184z" />
<glyph unicode="&#xf5;" d="M103 524q0 115 43 215.5t118.5 176t175 118.5t214.5 43t215 -43t176 -118.5t119 -176t43 -215.5t-43 -214t-119 -175t-176.5 -119t-214.5 -43q-115 0 -214.5 43t-175 119t-118.5 175t-43 214zM338 524q0 -66 24.5 -123t67.5 -100t100.5 -67.5t123.5 -24.5t124 24.5 t101 67.5t67.5 100.5t24.5 122.5q0 66 -24.5 124.5t-67.5 101.5t-101.5 67.5t-123.5 24.5q-66 0 -123.5 -24.5t-100.5 -67.5t-67.5 -101.5t-24.5 -124.5zM340 1266q49 86 134 108.5t171 -24.5q31 -18 57.5 -9t44.5 40l127 -76q-49 -86 -134 -108.5t-171 26.5 q-31 20 -57.5 10t-44.5 -43z" />
<glyph unicode="&#xf6;" d="M103 524q0 115 43 215.5t118.5 176t175 118.5t214.5 43t215 -43t176 -118.5t119 -176t43 -215.5t-43 -214t-119 -175t-176.5 -119t-214.5 -43q-115 0 -214.5 43t-175 119t-118.5 175t-43 214zM294 1374q0 59 44.5 103t103.5 44t103 -44t44 -103t-44 -103.5t-103 -44.5 t-103.5 44.5t-44.5 103.5zM338 524q0 -66 24.5 -123t67.5 -100t100.5 -67.5t123.5 -24.5t124 24.5t101 67.5t67.5 100.5t24.5 122.5q0 66 -24.5 124.5t-67.5 101.5t-101.5 67.5t-123.5 24.5q-66 0 -123.5 -24.5t-100.5 -67.5t-67.5 -101.5t-24.5 -124.5zM720 1374 q0 59 44.5 103t103.5 44t103 -44t44 -103t-44 -103.5t-103 -44.5t-103.5 44.5t-44.5 103.5z" />
<glyph unicode="&#xf7;" horiz-adv-x="921" d="M78 403v240h792v-240h-792zM346 166q0 59 44 103t104 44q59 0 103 -44t44 -103t-44 -103.5t-103 -44.5t-103.5 44.5t-44.5 103.5zM346 903q0 59 44 103.5t104 44.5q59 0 103 -44t44 -104q0 -59 -44 -103t-103 -44t-103.5 44t-44.5 103z" />
<glyph unicode="&#xf8;" d="M102 524q0 115 43 215.5t119 176t175.5 118.5t213.5 43q115 0 215.5 -43t176 -118.5t118.5 -176t43 -215.5t-43 -214t-118.5 -175t-176 -119t-215.5 -43t-214 43t-175 119t-119 175t-43 214zM309 -135l410 1329h246l-410 -1329h-246zM338 524q0 -66 24.5 -123t67.5 -100 t100.5 -67.5t122.5 -24.5q66 0 124.5 24.5t101.5 67.5t67.5 100.5t24.5 122.5q0 66 -24.5 124.5t-67.5 101.5t-101.5 67.5t-124.5 24.5t-123 -24.5t-100 -67.5t-67.5 -101.5t-24.5 -124.5z" />
<glyph unicode="&#xf9;" horiz-adv-x="1228" d="M122 487v564h238v-564q0 -158 59.5 -224t169.5 -66q78 0 143.5 24.5t114.5 71.5v758h238v-1051h-238v82q-53 -47 -118.5 -77t-145.5 -30q-113 0 -198.5 39t-144 107.5t-88.5 162t-30 203.5zM373 1356l84 151l455 -243l-86 -148z" />
<glyph unicode="&#xfa;" horiz-adv-x="1228" d="M122 487v564h238v-564q0 -158 59.5 -224t169.5 -66q78 0 143.5 24.5t114.5 71.5v758h238v-1051h-238v82q-53 -47 -118.5 -77t-145.5 -30q-113 0 -198.5 39t-144 107.5t-88.5 162t-30 203.5zM459 1174l104 260h219l-104 -260h-219z" />
<glyph unicode="&#xfb;" horiz-adv-x="1228" d="M122 487v564h238v-564q0 -158 59.5 -224t169.5 -66q78 0 143.5 24.5t114.5 71.5v758h238v-1051h-238v82q-53 -47 -118.5 -77t-145.5 -30q-113 0 -198.5 39t-144 107.5t-88.5 162t-30 203.5zM336 1167l186 267h183l188 -267h-190l-88 131l-95 -131h-184z" />
<glyph unicode="&#xfc;" horiz-adv-x="1228" d="M122 487v564h238v-564q0 -158 59.5 -224t169.5 -66q78 0 143.5 24.5t114.5 71.5v758h238v-1051h-238v82q-53 -47 -118.5 -77t-145.5 -30q-113 0 -198.5 39t-144 107.5t-88.5 162t-30 203.5zM229 1374q0 59 44.5 103t103.5 44t103 -44t44 -103t-44 -103.5t-103 -44.5 t-103.5 44.5t-44.5 103.5zM655 1374q0 59 44.5 103t103.5 44t103 -44t44 -103t-44 -103.5t-103 -44.5t-103.5 44.5t-44.5 103.5z" />
<glyph unicode="&#xfd;" horiz-adv-x="1230" d="M122 -424l91 193q70 -35 143.5 -54.5t159.5 -19.5q66 0 126 18.5t106 55t73.5 93t27.5 134.5v86q-53 -47 -118.5 -77t-145.5 -30q-113 0 -198.5 39t-144 107.5t-88.5 162t-30 203.5v564h238v-564q0 -158 59.5 -224t169.5 -66q78 0 143.5 24.5t114.5 71.5v758h238v-992 q0 -133 -42 -240.5t-118 -184t-180 -117.5t-229 -41q-82 0 -189.5 26.5t-206.5 73.5zM467 1174l104 260h219l-104 -260h-219z" />
<glyph unicode="&#xfe;" d="M102 -440v2039h238v-2039h-238zM102 524q0 115 43 215.5t119 176t175.5 118.5t213.5 43q115 0 215.5 -43t176 -118.5t118.5 -176t43 -215.5t-43 -214t-118.5 -175t-176 -119t-215.5 -43t-214 43t-175 119t-119 175t-43 214zM338 524q0 -66 24.5 -123t67.5 -100 t100.5 -67.5t122.5 -24.5q66 0 124.5 24.5t101.5 67.5t67.5 100.5t24.5 122.5q0 66 -24.5 124.5t-67.5 101.5t-101.5 67.5t-124.5 24.5t-123 -24.5t-100 -67.5t-67.5 -101.5t-24.5 -124.5z" />
<glyph unicode="&#xff;" horiz-adv-x="1230" d="M122 -424l91 193q70 -35 143.5 -54.5t159.5 -19.5q66 0 126 18.5t106 55t73.5 93t27.5 134.5v86q-53 -47 -118.5 -77t-145.5 -30q-113 0 -198.5 39t-144 107.5t-88.5 162t-30 203.5v564h238v-564q0 -158 59.5 -224t169.5 -66q78 0 143.5 24.5t114.5 71.5v758h238v-992 q0 -133 -42 -240.5t-118 -184t-180 -117.5t-229 -41q-82 0 -189.5 26.5t-206.5 73.5zM245 1374q0 59 44.5 103t103.5 44t103 -44t44 -103t-44 -103.5t-103 -44.5t-103.5 44.5t-44.5 103.5zM671 1374q0 59 44.5 103t103.5 44t103 -44t44 -103t-44 -103.5t-103 -44.5 t-103.5 44.5t-44.5 103.5z" />
<glyph unicode="&#x152;" horiz-adv-x="2127" d="M213 690q0 158 57.5 294t156.5 235.5t235.5 157t293.5 57.5h990v-240h-746v-195v-157h678v-240h-678v-362h746v-240h-990q-158 0 -294 49t-235 139.5t-156.5 217t-57.5 284.5zM457 690q0 -106 42 -189t113.5 -140.5t165.5 -87t201 -29.5v952q-106 0 -200.5 -40 t-166 -108.5t-113.5 -160.5t-42 -197z" />
<glyph unicode="&#x153;" horiz-adv-x="2222" d="M101 524q0 115 43 215.5t118.5 176t175 118.5t214.5 43t215 -43t176 -118.5t119 -176t43 -215.5t-43 -214t-119 -175t-176.5 -119t-214.5 -43q-115 0 -214.5 43t-175 119t-118.5 175t-43 214zM336 524q0 -66 24.5 -123t67.5 -100t100.5 -67.5t123.5 -24.5t124 24.5 t101 67.5t67.5 100.5t24.5 122.5q0 66 -24.5 124.5t-67.5 101.5t-101.5 67.5t-123.5 24.5q-66 0 -123.5 -24.5t-100.5 -67.5t-67.5 -101.5t-24.5 -124.5zM1080 524q0 115 39 215.5t108.5 176t164.5 118.5t210 43t211 -43t164.5 -118.5t107.5 -176t39 -215.5v-102h-794 q27 -94 97 -153.5t175 -59.5q63 0 117.5 21.5t97.5 60.5h285q-33 -70 -84.5 -128.5t-116 -100.5t-141 -65.5t-158.5 -23.5q-115 0 -210 43t-164.5 119t-108.5 175.5t-39 213.5zM1327 623h549q-25 96 -96.5 157.5t-177.5 61.5t-178 -61.5t-97 -157.5z" />
<glyph unicode="&#x178;" horiz-adv-x="1345" d="M24 1434h272l379 -580l363 580h282l-522 -830v-604h-243v602zM307 1661q0 59 44.5 103t103.5 44t103 -44t44 -103t-44 -103.5t-103 -44.5t-103.5 44.5t-44.5 103.5zM733 1661q0 59 44.5 103t103.5 44t103 -44t44 -103t-44 -103.5t-103 -44.5t-103.5 44.5t-44.5 103.5z " />
<glyph unicode="&#x2c6;" horiz-adv-x="645" d="M45 1167l186 267h183l188 -267h-190l-88 131l-95 -131h-184z" />
<glyph unicode="&#x2dc;" horiz-adv-x="614" d="M39 1708q49 86 134 108.5t171 -24.5q31 -18 57.5 -9t44.5 40l127 -76q-49 -86 -134 -108.5t-171 26.5q-31 20 -57.5 10t-44.5 -43z" />
<glyph unicode="&#x2000;" horiz-adv-x="959" />
<glyph unicode="&#x2001;" horiz-adv-x="1919" />
<glyph unicode="&#x2002;" horiz-adv-x="959" />
<glyph unicode="&#x2003;" horiz-adv-x="1919" />
<glyph unicode="&#x2004;" horiz-adv-x="639" />
<glyph unicode="&#x2005;" horiz-adv-x="479" />
<glyph unicode="&#x2006;" horiz-adv-x="319" />
<glyph unicode="&#x2007;" horiz-adv-x="319" />
<glyph unicode="&#x2008;" horiz-adv-x="239" />
<glyph unicode="&#x2009;" horiz-adv-x="383" />
<glyph unicode="&#x200a;" horiz-adv-x="106" />
<glyph unicode="&#x2010;" horiz-adv-x="821" d="M61 487v240h699v-240h-699z" />
<glyph unicode="&#x2011;" horiz-adv-x="821" d="M61 487v240h699v-240h-699z" />
<glyph unicode="&#x2012;" horiz-adv-x="821" d="M61 487v240h699v-240h-699z" />
<glyph unicode="&#x2013;" horiz-adv-x="1011" d="M82 471v221h848v-221h-848z" />
<glyph unicode="&#x2014;" horiz-adv-x="1175" d="M82 471v221h1012v-221h-1012z" />
<glyph unicode="&#x2018;" horiz-adv-x="389" d="M47 1094q0 111 63.5 204t208.5 136l23 -66q-59 -23 -92 -52.5t-39 -74.5q53 -8 92 -50t39 -97q0 -59 -44 -103.5t-103 -44.5t-103.5 44t-44.5 104z" />
<glyph unicode="&#x2019;" horiz-adv-x="389" d="M47 1012q59 23 92 52.5t39 74.5q-53 8 -92 50t-39 97q0 59 44 103.5t104 44.5q59 0 103 -44t44 -104q0 -111 -63.5 -204t-208.5 -136z" />
<glyph unicode="&#x201a;" horiz-adv-x="555" d="M154 121q0 59 44 103t103 44t103.5 -44t44.5 -103q0 -111 -63.5 -204t-209.5 -136l-22 65q59 23 92 52.5t39 74.5q-53 8 -92 50.5t-39 97.5z" />
<glyph unicode="&#x201c;" horiz-adv-x="778" d="M61 1094q0 111 63.5 204t209.5 136l22 -66q-59 -23 -92 -52.5t-39 -74.5q53 -8 92 -50t39 -97q0 -59 -44 -103.5t-103 -44.5t-103.5 44t-44.5 104zM422 1094q0 111 63.5 204t208.5 136l23 -66q-59 -23 -92 -52.5t-39 -74.5q53 -8 92 -50t39 -97q0 -59 -44 -103.5 t-104 -44.5q-59 0 -103 44t-44 104z" />
<glyph unicode="&#x201d;" horiz-adv-x="778" d="M61 1012q59 23 92.5 52.5t39.5 74.5q-53 8 -92.5 50t-39.5 97q0 59 44.5 103.5t103.5 44.5t103 -44t44 -104q0 -111 -63.5 -204t-208.5 -136zM422 1012q59 23 92 52.5t39 74.5q-53 8 -92 50t-39 97q0 59 44 103.5t103 44.5t103.5 -44t44.5 -104q0 -111 -63.5 -204 t-209.5 -136z" />
<glyph unicode="&#x201e;" horiz-adv-x="929" d="M154 121q0 59 44 103t103 44t103.5 -44t44.5 -103q0 -111 -63.5 -204t-209.5 -136l-22 65q59 23 92 52.5t39 74.5q-53 8 -92 50.5t-39 97.5zM555 121q0 59 44 103t103 44t103.5 -44t44.5 -103q0 -111 -63.5 -204t-208.5 -136l-23 65q59 23 92 52.5t39 74.5 q-53 8 -92 50.5t-39 97.5z" />
<glyph unicode="&#x2022;" horiz-adv-x="536" d="M139 594q0 59 44 103t104 44q59 0 103 -44t44 -103t-44 -103.5t-103 -44.5t-103.5 44.5t-44.5 103.5z" />
<glyph unicode="&#x2026;" horiz-adv-x="1349" d="M154 121q0 59 44 103t103 44t103.5 -44t44.5 -103t-44.5 -103.5t-103.5 -44.5t-103 44.5t-44 103.5zM569 121q0 59 44 103t104 44q59 0 103 -44t44 -103t-44 -103.5t-103 -44.5t-103.5 44.5t-44.5 103.5zM975 121q0 59 44 103t103 44t103.5 -44t44.5 -103t-44 -103.5 t-104 -44.5q-59 0 -103 44.5t-44 103.5z" />
<glyph unicode="&#x202f;" horiz-adv-x="383" />
<glyph unicode="&#x2039;" horiz-adv-x="716" d="M25 510l510 510l129 -135l-377 -375l377 -377l-129 -133z" />
<glyph unicode="&#x203a;" horiz-adv-x="745" d="M49 133l377 377l-377 375l129 135l510 -510l-510 -510z" />
<glyph unicode="&#x205f;" horiz-adv-x="479" />
<glyph unicode="&#x20ac;" horiz-adv-x="1673" d="M92 489v185h184v41v32.5t3 32.5h-187v185h225q37 109 104.5 199.5t159 156t203 101.5t236.5 36q164 0 302 -61.5t241 -167.5l-174 -176q-68 74 -163.5 116.5t-205.5 42.5q-143 0 -257 -67.5t-179 -179.5h446v-185h-506q-4 -16 -4 -32.5v-32.5v-20.5t2 -20.5h508v-185 h-459q59 -125 178 -199.5t271 -74.5q123 0 223 50t168 136l168 -184q-102 -115 -245.5 -180.5t-313.5 -65.5q-129 0 -242.5 38t-206 106.5t-160 164t-102.5 209.5h-217z" />
<glyph unicode="&#x2122;" horiz-adv-x="1271" d="M41 1333v101h483v-101h-190v-499h-103v499h-190zM610 834v600h92l207 -269l203 269h94v-600h-104v436l-193 -258l-196 256v-434h-103z" />
<glyph unicode="&#x25fc;" horiz-adv-x="1054" d="M0 0v1055h1055v-1055h-1055z" />
</font>
</defs>
</svg>
